<svg width="30" height="39" viewBox="0 0 30 39" fill="none" xmlns="http://www.w3.org/2000/svg">
<g clip-path="url(#clip0_1136_304)">
<path d="M16.6289 5.32654C16.5994 5.35602 16.57 5.40025 16.5405 5.42973C16.2456 5.70983 15.8918 5.93095 15.5085 6.09311C15.1105 6.25528 14.6977 6.32899 14.2702 6.32899C13.8427 6.32899 13.4152 6.25528 13.0172 6.09311C12.6044 5.93095 12.2358 5.6656 11.9263 5.35602V7.80317H16.6289V5.32654Z" fill="#BE78FF" style="fill:#BE78FF;fill:color(display-p3 0.7451 0.4706 1.0000);fill-opacity:1;"/>
<path d="M13.003 6.09312C13.401 6.25528 13.8285 6.32899 14.2561 6.32899C14.6836 6.32899 15.0963 6.25528 15.4944 6.09312C15.8777 5.93096 16.2167 5.70984 16.5263 5.42974C16.5558 5.40026 16.5853 5.35603 16.6147 5.32655C16.8654 5.06119 17.057 4.76636 17.2044 4.44204C17.3813 4.05875 17.4698 3.66072 17.4698 3.24795C17.4698 2.83517 17.3813 2.43714 17.2044 2.0686C17.0423 1.70005 16.8064 1.36099 16.5263 1.08089C16.2315 0.800797 15.8924 0.579669 15.5091 0.43225C15.1258 0.255348 14.6983 0.166897 14.2708 0.181639C13.4158 0.19638 12.605 0.520701 12.0005 1.09563C11.7057 1.37573 11.4846 1.71479 11.3224 2.08334C11.1603 2.45188 11.0718 2.86466 11.0866 3.26269C11.0866 3.67546 11.1603 4.08823 11.3224 4.45678C11.4698 4.79584 11.6762 5.09068 11.9268 5.35603C12.2217 5.66561 12.5902 5.91622 13.003 6.09312Z" fill="#181C32" style="fill:#181C32;fill:color(display-p3 0.0941 0.1098 0.1961);fill-opacity:1;"/>
<path d="M11.1303 15.631C10.806 15.3067 10.3932 15.0856 9.93621 14.9971C9.47921 14.9087 9.00747 14.9529 8.57996 15.1298C8.15244 15.3067 7.7839 15.6015 7.53328 15.9848C7.28267 16.3681 7.13525 16.8251 7.13525 17.2821C7.13525 17.9013 7.38587 18.4909 7.81338 18.9332C8.25564 19.3754 8.84531 19.6113 9.46447 19.6113C9.92147 19.6113 10.3785 19.4786 10.7618 19.2133C11.145 18.9627 11.4399 18.5941 11.6168 18.1666C11.7937 17.7391 11.8379 17.2674 11.7495 16.8104C11.6757 16.3681 11.4546 15.9553 11.1303 15.631Z" fill="#181C32" style="fill:#181C32;fill:color(display-p3 0.0941 0.1098 0.1961);fill-opacity:1;"/>
<path d="M21.2277 18.1813C21.4046 17.7538 21.4488 17.2821 21.3604 16.8251C21.2719 16.3681 21.0508 15.9553 20.7265 15.631C20.4022 15.3067 19.9894 15.0856 19.5324 14.9971C19.0754 14.9087 18.6037 14.9529 18.1761 15.1298C17.7486 15.3067 17.3801 15.6015 17.1295 15.9848C16.8789 16.3681 16.7314 16.8251 16.7314 17.2821C16.7314 17.9013 16.9821 18.4909 17.4096 18.9332C17.8518 19.3754 18.4415 19.6113 19.0607 19.6113C19.5177 19.6113 19.9747 19.4786 20.3579 19.2133C20.756 18.9774 21.0508 18.6089 21.2277 18.1813Z" fill="#181C32" style="fill:#181C32;fill:color(display-p3 0.0941 0.1098 0.1961);fill-opacity:1;"/>
<path d="M6.11833 28.6921H1.23877V33.3358H6.11833V28.7069V28.6921Z" fill="#FF50A4" style="fill:#FF50A4;fill:color(display-p3 1.0000 0.3137 0.6431);fill-opacity:1;"/>
<path d="M28.555 17.2821C28.555 12.0488 24.3093 7.8031 19.076 7.8031H16.6288H11.9262H9.47902C4.24566 7.8031 0 12.0488 0 17.2821C0 22.5155 4.24566 26.7611 9.46428 26.7611H9.5085C9.3316 27.1002 9.09573 27.4098 8.80089 27.6751C8.09328 28.3238 7.12032 28.6923 6.11787 28.7071V33.3507C8.25544 33.3507 10.3193 32.6284 11.9262 31.3459V33.9109H16.5993V31.3311C18.2062 32.6137 20.2701 33.336 22.4076 33.336V28.6923C21.4052 28.6923 20.4322 28.3238 19.7246 27.6604C19.4298 27.395 19.1939 27.0855 19.017 26.7464H19.0612C24.2946 26.7611 28.555 22.5155 28.555 17.2821ZM9.46428 22.088C6.81074 22.088 4.65843 19.9357 4.65843 17.2821C4.65843 14.6286 6.81074 12.4763 9.46428 12.4763H19.0612C21.7148 12.4763 23.8671 14.6286 23.8671 17.2821C23.8671 19.9357 21.7148 22.088 19.0612 22.088H9.46428Z" fill="#181C32" style="fill:#181C32;fill:color(display-p3 0.0941 0.1098 0.1961);fill-opacity:1;"/>
<path d="M22.4214 28.7069V33.3358H27.3009V28.6921H22.4214V28.7069Z" fill="#0598FF" style="fill:#0598FF;fill:color(display-p3 0.0196 0.5961 1.0000);fill-opacity:1;"/>
<path d="M11.9263 36.1223V38.82H16.6142V36.1223V33.8962H11.9263V36.1223Z" fill="#FF8F28" style="fill:#FF8F28;fill:color(display-p3 1.0000 0.5608 0.1569);fill-opacity:1;"/>
</g>
<defs>
<clipPath id="clip0_1136_304">
<rect width="29.6416" height="38.64" fill="white" style="fill:white;fill-opacity:1;" transform="translate(0 0.180054)"/>
</clipPath>
</defs>
</svg>
